<svg fill="none" xmlns="http://www.w3.org/2000/svg">
<!--width="2681" height="500"-->
<path d="M311.268 447.09C190.558 372.436 48.9635 415.984 0 447.09V0H2681V447.09C2629.84 400.292 2504.96 427.591 2472.66 447.09C2356.74 538.458 2223.17 485.16 2155.89 447.09C2045.57 372.436 1916.74 415.984 1872.1 447.09C1749.79 542.915 1603.64 487.017 1548.34 447.09C1439.63 376.893 1303.19 417.841 1244.57 447.09C1100.68 534.001 980.602 483.303 925.31 447.09C795.806 361.293 631.362 411.341 579.068 447.09C438.373 522.859 355.568 478.66 311.268 447.09Z" fill="url(#paint0_linear)"/>
<defs>
<linearGradient id="paint0_linear" x1="1340.5" y1="0" x2="1340.5" y2="500" gradientUnits="userSpaceOnUse">
<stop stop-color="#04724D"/>
<stop offset="1" stop-color="#23E8A5"/>
</linearGradient>
</defs>
</svg>