<svg width="120" height="121" viewBox="0 0 120 121" fill="none" xmlns="http://www.w3.org/2000/svg">
<rect y="0.0715332" width="120" height="120" rx="21" fill="#373737"/>
<path d="M0 99.0715C0 107.072 4 113.071 8 115.571C36 57.9715 93.6667 27.0715 120 20.0715C118.8 4.47156 108 0.071527 99.5 0.0715273H24C6.4 -1.12847 0 13.0715 0 20.0715V99.0715Z" fill="#23E8A5"/>
<path d="M47.074 86.5414C41.7407 89.6206 35.074 85.7716 35.074 79.6132L35.074 37.178C35.074 31.0196 41.7407 27.1706 47.074 30.2498L83.824 51.4674C89.1574 54.5466 89.1574 62.2446 83.824 65.3238L47.074 86.5414Z" fill="white"/>
</svg>
